<svg width="276" height="160" viewBox="0 0 276 160" fill="none" xmlns="http://www.w3.org/2000/svg">
<g filter="url(#filter0_d_67_1325)">
<g clip-path="url(#clip0_67_1325)">
<g filter="url(#filter1_f_67_1325)">
<path d="M-130 -76H406V228H-130V-76Z" fill="#E9D5FF"/>
<path d="M90.9734 -36L-54.6567 51L-39.4869 143.8L122.324 -13" fill="white"/>
<path d="M172.89 -44L33.3281 76L120.302 116.8L213.343 22" fill="#D9F99D"/>
<path d="M230.536 54L142.551 247L243.683 267.8L355.94 215M-5.10168 60L-47.5771 67L69.7361 219.8L116.257 134" fill="white"/>
<path d="M136.483 141L25.2378 192L162.777 343.8L227.502 192" fill="white"/>
<path d="M206.264 108L110.188 112L131.426 271.8L297.283 127" fill="#E9D5FF"/>
</g>
</g>
</g>
<defs>
<filter id="filter0_d_67_1325" x="0" y="0" width="276" height="160" filterUnits="userSpaceOnUse" color-interpolation-filters="sRGB">
<feFlood flood-opacity="0" result="BackgroundImageFix"/>
<feColorMatrix in="SourceAlpha" type="matrix" values="0 0 0 0 0 0 0 0 0 0 0 0 0 0 0 0 0 0 127 0" result="hardAlpha"/>
<feOffset dy="4"/>
<feGaussianBlur stdDeviation="2"/>
<feComposite in2="hardAlpha" operator="out"/>
<feColorMatrix type="matrix" values="0 0 0 0 0 0 0 0 0 0 0 0 0 0 0 0 0 0 0.25 0"/>
<feBlend mode="normal" in2="BackgroundImageFix" result="effect1_dropShadow_67_1325"/>
<feBlend mode="normal" in="SourceGraphic" in2="effect1_dropShadow_67_1325" result="shape"/>
</filter>
<filter id="filter1_f_67_1325" x="-186.71" y="-132.71" width="649.42" height="533.22" filterUnits="userSpaceOnUse" color-interpolation-filters="sRGB">
<feFlood flood-opacity="0" result="BackgroundImageFix"/>
<feBlend mode="normal" in="SourceGraphic" in2="BackgroundImageFix" result="shape"/>
<feGaussianBlur stdDeviation="28.355" result="effect1_foregroundBlur_67_1325"/>
</filter>
<clipPath id="clip0_67_1325">
<rect x="4" width="268" height="152" rx="4" fill="white"/>
</clipPath>
</defs>
</svg>
